<svg width="16" height="16" viewBox="0 0 16 16" fill="none" xmlns="http://www.w3.org/2000/svg">
<path d="M0.292893 14.2929C-0.0976311 14.6834 -0.0976311 15.3166 0.292893 15.7071C0.683417 16.0976 1.31658 16.0976 1.70711 15.7071L0.292893 14.2929ZM16 1C16 0.447715 15.5523 0 15 0H6C5.44772 0 5 0.447715 5 1C5 1.55228 5.44772 2 6 2H14V10C14 10.5523 14.4477 11 15 11C15.5523 11 16 10.5523 16 10V1ZM1.70711 15.7071L15.7071 1.70711L14.2929 0.292893L0.292893 14.2929L1.70711 15.7071Z" fill="#00FFA3"/>
</svg>
